<svg width="24" height="24" viewBox="0 0 24 24" fill="none" xmlns="http://www.w3.org/2000/svg">
<path d="M11.9871 0.00793457C11.6636 0.00793457 11.4015 0.270188 11.4015 0.593503V5.27858C11.4015 5.6019 11.6638 5.86414 11.9871 5.86414C12.3106 5.86414 12.5727 5.60189 12.5727 5.27858V0.593503C12.5727 0.269974 12.3104 0.00793457 11.9871 0.00793457ZM3.91652 3.35701C3.7666 3.35701 3.60994 3.40746 3.49557 3.52163C3.26681 3.75039 3.26681 4.1256 3.49557 4.35436L6.80809 7.66688C7.03685 7.89544 7.41206 7.89564 7.64082 7.66688C7.86958 7.43812 7.86958 7.06291 7.64082 6.83415L4.3283 3.52163C4.21392 3.40725 4.06645 3.35701 3.91653 3.35701H3.91652ZM20.0577 3.35701C19.9078 3.35701 19.7603 3.40746 19.6459 3.52163L16.3336 6.83415C16.1049 7.06291 16.1049 7.43812 16.3336 7.66688C16.5624 7.89564 16.9376 7.89564 17.1664 7.66688L20.4787 4.3542C20.7074 4.12545 20.7074 3.75023 20.4787 3.52147C20.3643 3.40709 20.2076 3.35685 20.0577 3.35685L20.0577 3.35701ZM0.567503 11.4276C0.243973 11.4276 -0.0180664 11.6898 -0.0180664 12.0132C-0.0180664 12.3367 0.244187 12.5987 0.567503 12.5987H5.25257C5.5759 12.5987 5.83814 12.3365 5.83814 12.0132C5.83814 11.6896 5.57589 11.4276 5.25257 11.4276H0.567503ZM18.7218 11.4276C18.3984 11.4276 18.1362 11.6898 18.1362 12.0132C18.1362 12.3367 18.3984 12.5987 18.7218 12.5987H23.4068C23.7304 12.5987 23.9924 12.3365 23.9924 12.0132C23.9924 11.6896 23.7301 11.4276 23.4068 11.4276H18.7218ZM7.22894 16.1858C7.07902 16.1858 6.92236 16.2452 6.80798 16.3596L3.49567 19.6721C3.26691 19.9009 3.26691 20.2761 3.49567 20.5048C3.72443 20.7336 4.09964 20.7336 4.3284 20.5048L7.64072 17.1923C7.86947 16.9636 7.86947 16.5883 7.64072 16.3596C7.52634 16.2452 7.37887 16.1858 7.22895 16.1858H7.22894ZM16.7453 16.1858C16.5954 16.1858 16.4479 16.2452 16.3335 16.3596C16.1048 16.5883 16.1048 16.9636 16.3335 17.1923L19.6458 20.5048C19.8746 20.7336 20.2498 20.7336 20.4786 20.5048C20.7073 20.2761 20.7073 19.9009 20.4786 19.6721L17.166 16.3596C17.0517 16.2452 16.895 16.1858 16.7451 16.1858H16.7453ZM11.9871 18.1623C11.6636 18.1623 11.4015 18.4245 11.4015 18.7479V23.4329C11.4015 23.7565 11.6638 24.0185 11.9871 24.0185C12.3106 24.0185 12.5727 23.7562 12.5727 23.4329V18.7479C12.5727 18.4245 12.3104 18.1623 11.9871 18.1623Z" fill="black"/>
</svg>
