<svg width="19" height="24" viewBox="0 0 19 24" fill="none" xmlns="http://www.w3.org/2000/svg">
<path d="M0.538137 -0.00717519C0.265304 -0.00717519 -0.00732422 0.265658 -0.00732422 0.538286V23.4497C-0.00732422 23.7353 0.252568 23.9952 0.538137 23.9952H17.9945C18.28 23.9952 18.5399 23.7353 18.5399 23.4497V6.5389C18.5399 6.39373 18.4813 6.24894 18.378 6.14677L12.3774 0.146162C12.2758 0.0479894 12.135 -0.00832963 11.9938 -0.00718503L0.538137 -0.00717519ZM1.0836 1.08375H11.4483V6.53885C11.4483 6.84022 11.6926 7.0845 11.9937 7.0845H17.4488V22.9043H1.08355L1.0836 1.08375ZM12.5393 1.85087L16.6818 5.99338H12.5393V1.85087ZM9.22368 9.53915C9.12607 9.54543 9.03171 9.57777 8.95084 9.63295L4.31406 12.906C4.11429 13.0414 4.02715 13.292 4.09983 13.5222C4.1727 13.7524 4.38807 13.9073 4.62951 13.9031H5.44782V18.8127H5.17499C4.87362 18.8127 4.62953 19.057 4.62953 19.3581C4.62953 19.6595 4.87382 19.9036 5.17499 19.9036H13.3576C13.659 19.9036 13.9031 19.6593 13.9031 19.3581C13.9031 19.0568 13.6588 18.8127 13.3576 18.8127H13.0848V13.9031H13.9031C14.1446 13.9073 14.3601 13.7524 14.4328 13.5222C14.5057 13.292 14.4185 13.0412 14.2186 12.906L9.58178 9.63295V9.63276C9.47695 9.56084 9.35024 9.52774 9.22372 9.53915L9.22368 9.53915ZM9.2663 10.7496L12.1898 12.8124H6.34261L9.2663 10.7495V10.7496ZM6.53875 13.9033H7.62967V18.8129H6.53875V13.9033ZM8.72083 13.9033H9.81176V18.8129H8.72083V13.9033ZM10.9029 13.9033H11.9938V18.8129H10.9029V13.9033Z" fill="black"/>
</svg>
