<svg width="34" height="30" viewBox="0 0 34 30" fill="none" xmlns="http://www.w3.org/2000/svg">
<path d="M16.9999 15.7789C18.8535 15.7789 20.3561 14.2327 20.3561 12.3254C20.3561 10.4181 18.8535 8.87192 16.9999 8.87192C15.1462 8.87192 13.6436 10.4181 13.6436 12.3254C13.6436 14.2327 15.1462 15.7789 16.9999 15.7789Z" fill="url(#paint0_linear_36_2676)"/>
<path d="M33 26.4861H1V29H33V26.4861Z" fill="url(#paint1_linear_36_2676)"/>
<path d="M33 20.1464V22.6518H20.7265V20.5527H20.7347C20.7676 20.5357 20.8087 20.5188 20.8416 20.5019C20.8828 20.4765 20.9239 20.4596 20.965 20.4342C20.9897 20.4257 21.0226 20.4088 21.0473 20.3918C21.146 20.3326 21.2447 20.2818 21.3434 20.2226L21.4668 20.1464C24.017 18.5889 25.728 15.7195 25.728 12.4438C25.728 7.49216 21.8288 3.48006 17.0165 3.48006C12.2041 3.48006 8.30488 7.49216 8.30488 12.4438C8.30488 15.7195 10.0159 18.5805 12.5661 20.1464L12.6895 20.2226C12.7882 20.2818 12.8869 20.3411 12.9856 20.3918C13.0103 20.4088 13.0432 20.4172 13.0679 20.4342C13.109 20.4596 13.1501 20.485 13.1913 20.5019C13.1913 20.5019 13.1995 20.5019 13.1995 20.5103C13.2242 20.5273 13.2571 20.5357 13.29 20.5527L13.2982 22.6518H1V20.1464H8.84782C7.02159 18.1065 5.91105 15.3894 5.91105 12.41C5.91105 6.10401 10.8715 1 17 1C23.1285 1 28.0889 6.10401 28.0972 12.41C28.0972 15.3979 26.9784 18.1149 25.1604 20.1464H33Z" fill="url(#paint2_linear_36_2676)"/>
<path d="M16.9999 15.7789C18.8535 15.7789 20.3561 14.2327 20.3561 12.3254C20.3561 10.4181 18.8535 8.87192 16.9999 8.87192C15.1462 8.87192 13.6436 10.4181 13.6436 12.3254C13.6436 14.2327 15.1462 15.7789 16.9999 15.7789Z" stroke="url(#paint3_linear_36_2676)" stroke-width="0.6"/>
<path d="M33 26.4861H1V29H33V26.4861Z" stroke="url(#paint4_linear_36_2676)" stroke-width="0.6"/>
<path d="M33 20.1464V22.6518H20.7265V20.5527H20.7347C20.7676 20.5357 20.8087 20.5188 20.8416 20.5019C20.8828 20.4765 20.9239 20.4596 20.965 20.4342C20.9897 20.4257 21.0226 20.4088 21.0473 20.3918C21.146 20.3326 21.2447 20.2818 21.3434 20.2226L21.4668 20.1464C24.017 18.5889 25.728 15.7195 25.728 12.4438C25.728 7.49216 21.8288 3.48006 17.0165 3.48006C12.2041 3.48006 8.30488 7.49216 8.30488 12.4438C8.30488 15.7195 10.0159 18.5805 12.5661 20.1464L12.6895 20.2226C12.7882 20.2818 12.8869 20.3411 12.9856 20.3918C13.0103 20.4088 13.0432 20.4172 13.0679 20.4342C13.109 20.4596 13.1501 20.485 13.1913 20.5019C13.1913 20.5019 13.1995 20.5019 13.1995 20.5103C13.2242 20.5273 13.2571 20.5357 13.29 20.5527L13.2982 22.6518H1V20.1464H8.84782C7.02159 18.1065 5.91105 15.3894 5.91105 12.41C5.91105 6.10401 10.8715 1 17 1C23.1285 1 28.0889 6.10401 28.0972 12.41C28.0972 15.3979 26.9784 18.1149 25.1604 20.1464H33Z" stroke="url(#paint5_linear_36_2676)" stroke-width="0.6"/>
<defs>
<linearGradient id="paint0_linear_36_2676" x1="17" y1="1" x2="17" y2="29" gradientUnits="userSpaceOnUse">
<stop stop-color="#29F49A"/>
<stop offset="1" stop-color="#01A0FB"/>
</linearGradient>
<linearGradient id="paint1_linear_36_2676" x1="17" y1="1" x2="17" y2="29" gradientUnits="userSpaceOnUse">
<stop stop-color="#29F49A"/>
<stop offset="1" stop-color="#01A0FB"/>
</linearGradient>
<linearGradient id="paint2_linear_36_2676" x1="17" y1="1" x2="17" y2="29" gradientUnits="userSpaceOnUse">
<stop stop-color="#29F49A"/>
<stop offset="1" stop-color="#01A0FB"/>
</linearGradient>
<linearGradient id="paint3_linear_36_2676" x1="17" y1="1" x2="17" y2="29" gradientUnits="userSpaceOnUse">
<stop stop-color="#29F49A"/>
<stop offset="1" stop-color="#01A0FB"/>
</linearGradient>
<linearGradient id="paint4_linear_36_2676" x1="17" y1="1" x2="17" y2="29" gradientUnits="userSpaceOnUse">
<stop stop-color="#29F49A"/>
<stop offset="1" stop-color="#01A0FB"/>
</linearGradient>
<linearGradient id="paint5_linear_36_2676" x1="17" y1="1" x2="17" y2="29" gradientUnits="userSpaceOnUse">
<stop stop-color="#29F49A"/>
<stop offset="1" stop-color="#01A0FB"/>
</linearGradient>
</defs>
</svg>
