<svg width="142" height="28" viewBox="0 0 142 28" fill="none" xmlns="http://www.w3.org/2000/svg">
<path d="M10.9999 14.4451C12.0426 14.4451 12.8878 13.5615 12.8878 12.4717C12.8878 11.3818 12.0426 10.4982 10.9999 10.4982C9.95725 10.4982 9.112 11.3818 9.112 12.4717C9.112 13.5615 9.95725 14.4451 10.9999 14.4451Z" fill="url(#paint0_linear_36_2367)"/>
<path d="M20 20.5635H2V22H20V20.5635Z" fill="url(#paint1_linear_36_2367)"/>
<path d="M20 16.9408V18.3725H13.0961V17.173H13.1008C13.1193 17.1633 13.1424 17.1536 13.1609 17.1439C13.1841 17.1294 13.2072 17.1198 13.2303 17.1052C13.2442 17.1004 13.2627 17.0907 13.2766 17.0811C13.3321 17.0472 13.3877 17.0182 13.4432 16.9843L13.5126 16.9408C14.947 16.0508 15.9095 14.4112 15.9095 12.5393C15.9095 9.70981 13.7162 7.41718 11.0093 7.41718C8.30231 7.41718 6.109 9.70981 6.109 12.5393C6.109 14.4112 7.07147 16.046 8.50591 16.9408L8.57532 16.9843C8.63085 17.0182 8.68638 17.052 8.7419 17.0811C8.75578 17.0907 8.77429 17.0956 8.78818 17.1052C8.81131 17.1198 8.83445 17.1343 8.85758 17.1439C8.85758 17.1439 8.86221 17.1439 8.86221 17.1488C8.87609 17.1584 8.8946 17.1633 8.91311 17.173L8.91774 18.3725H2V16.9408H6.4144C5.38715 15.7751 4.76247 14.2225 4.76247 12.52C4.76247 8.91658 7.5527 6 11 6C14.4473 6 17.2375 8.91658 17.2422 12.52C17.2422 14.2274 16.6129 15.78 15.5902 16.9408H20Z" fill="url(#paint2_linear_36_2367)"/>
<path d="M10.9999 14.4451C12.0426 14.4451 12.8878 13.5615 12.8878 12.4717C12.8878 11.3818 12.0426 10.4982 10.9999 10.4982C9.95725 10.4982 9.112 11.3818 9.112 12.4717C9.112 13.5615 9.95725 14.4451 10.9999 14.4451Z" stroke="url(#paint3_linear_36_2367)" stroke-width="0.6"/>
<path d="M20 20.5635H2V22H20V20.5635Z" stroke="url(#paint4_linear_36_2367)" stroke-width="0.6"/>
<path d="M20 16.9408V18.3725H13.0961V17.173H13.1008C13.1193 17.1633 13.1424 17.1536 13.1609 17.1439C13.1841 17.1294 13.2072 17.1198 13.2303 17.1052C13.2442 17.1004 13.2627 17.0907 13.2766 17.0811C13.3321 17.0472 13.3877 17.0182 13.4432 16.9843L13.5126 16.9408C14.947 16.0508 15.9095 14.4112 15.9095 12.5393C15.9095 9.70981 13.7162 7.41718 11.0093 7.41718C8.30231 7.41718 6.109 9.70981 6.109 12.5393C6.109 14.4112 7.07147 16.046 8.50591 16.9408L8.57532 16.9843C8.63085 17.0182 8.68638 17.052 8.7419 17.0811C8.75578 17.0907 8.77429 17.0956 8.78818 17.1052C8.81131 17.1198 8.83445 17.1343 8.85758 17.1439C8.85758 17.1439 8.86221 17.1439 8.86221 17.1488C8.87609 17.1584 8.8946 17.1633 8.91311 17.173L8.91774 18.3725H2V16.9408H6.4144C5.38715 15.7751 4.76247 14.2225 4.76247 12.52C4.76247 8.91658 7.5527 6 11 6C14.4473 6 17.2375 8.91658 17.2422 12.52C17.2422 14.2274 16.6129 15.78 15.5902 16.9408H20Z" stroke="url(#paint5_linear_36_2367)" stroke-width="0.6"/>
<path d="M31.372 21L26.668 9.144H29.788L31.852 14.592C32.108 15.296 32.324 15.944 32.5 16.536C32.692 17.112 32.828 17.56 32.908 17.88C32.988 17.512 33.124 17.04 33.316 16.464C33.524 15.872 33.756 15.248 34.012 14.592L36.172 9.144H39.196L34.252 21H31.372ZM45.7207 21.312C44.5527 21.312 43.5127 21.048 42.6007 20.52C41.7047 19.976 41.0007 19.24 40.4887 18.312C39.9767 17.368 39.7207 16.288 39.7207 15.072C39.7207 13.84 39.9687 12.752 40.4647 11.808C40.9607 10.864 41.6567 10.128 42.5527 9.6C43.4487 9.056 44.4727 8.784 45.6247 8.784C46.8247 8.784 47.8567 9.04 48.7207 9.552C49.5847 10.048 50.2487 10.744 50.7127 11.64C51.1927 12.536 51.4327 13.608 51.4327 14.856V15.744L41.2567 15.768L41.3047 13.896H48.5287C48.5287 13.08 48.2647 12.424 47.7367 11.928C47.2247 11.432 46.5287 11.184 45.6487 11.184C44.9607 11.184 44.3767 11.328 43.8967 11.616C43.4327 11.904 43.0807 12.336 42.8407 12.912C42.6007 13.488 42.4807 14.192 42.4807 15.024C42.4807 16.304 42.7527 17.272 43.2967 17.928C43.8567 18.584 44.6807 18.912 45.7687 18.912C46.5687 18.912 47.2247 18.76 47.7367 18.456C48.2647 18.152 48.6087 17.72 48.7687 17.16H51.4807C51.2247 18.456 50.5847 19.472 49.5607 20.208C48.5527 20.944 47.2727 21.312 45.7207 21.312ZM61.3161 9.096V11.808H60.2361C59.1641 11.808 58.3241 12.096 57.7161 12.672C57.1081 13.232 56.8041 14.088 56.8041 15.24V21H53.8761V9.168H56.6361L56.8761 11.616H56.5881C56.7481 10.832 57.1241 10.192 57.7161 9.696C58.3081 9.2 59.0761 8.952 60.0201 8.952C60.2281 8.952 60.4361 8.96 60.6441 8.976C60.8521 8.992 61.0761 9.032 61.3161 9.096ZM66.4572 21.312C65.2092 21.312 64.2172 20.976 63.4812 20.304C62.7612 19.616 62.4012 18.72 62.4012 17.616C62.4012 16.528 62.7772 15.664 63.5292 15.024C64.2972 14.368 65.3852 13.984 66.7932 13.872L70.3452 13.584V13.32C70.3452 12.776 70.2412 12.344 70.0332 12.024C69.8412 11.688 69.5612 11.448 69.1932 11.304C68.8252 11.144 68.3932 11.064 67.8972 11.064C67.0332 11.064 66.3692 11.24 65.9052 11.592C65.4412 11.928 65.2092 12.408 65.2092 13.032H62.7132C62.7132 12.168 62.9292 11.424 63.3612 10.8C63.8092 10.16 64.4332 9.664 65.2332 9.312C66.0492 8.96 66.9852 8.784 68.0412 8.784C69.1132 8.784 70.0332 8.976 70.8012 9.36C71.5692 9.728 72.1612 10.288 72.5772 11.04C72.9932 11.776 73.2012 12.696 73.2012 13.8V21H70.6332L70.4172 19.248C70.1612 19.856 69.6652 20.352 68.9292 20.736C68.2092 21.12 67.3852 21.312 66.4572 21.312ZM67.3932 19.104C68.3052 19.104 69.0252 18.848 69.5532 18.336C70.0972 17.824 70.3692 17.112 70.3692 16.2V15.576L67.8972 15.768C66.9852 15.848 66.3372 16.04 65.9532 16.344C65.5692 16.632 65.3772 17.016 65.3772 17.496C65.3772 18.024 65.5532 18.424 65.9052 18.696C66.2572 18.968 66.7532 19.104 67.3932 19.104Z" fill="black"/>
<rect x="79" y="6" width="63" height="16" rx="4" fill="url(#paint6_linear_36_2367)"/>
<path d="M84.89 10.6V18H83.27V10.6H84.89ZM87.98 12.1H83.42V10.6H87.98V12.1ZM87.49 15.11H83.38V13.65H87.49V15.11ZM90.8103 10.6V18H89.1903V10.6H90.8103ZM94.0544 18H92.4544V10.6H94.0544L97.6744 16.06H97.1744V10.6H98.7744V18H97.1744L93.5544 12.55H94.0544V18ZM101.426 18H99.7357L102.376 10.6H103.956L106.586 18H104.866L104.346 16.44H101.956L101.426 18ZM102.956 13.5L102.426 15.08H103.886L103.356 13.5C103.316 13.3733 103.276 13.2433 103.236 13.11C103.196 12.9767 103.169 12.8667 103.156 12.78C103.142 12.8667 103.116 12.9767 103.076 13.11C103.042 13.2367 103.002 13.3667 102.956 13.5ZM109.147 18H107.547V10.6H109.147L112.767 16.06H112.267V10.6H113.867V18H112.267L108.647 12.55H109.147V18ZM118.708 18.12C117.968 18.12 117.328 17.9667 116.788 17.66C116.248 17.3467 115.832 16.9067 115.538 16.34C115.245 15.7667 115.098 15.09 115.098 14.31C115.098 13.5367 115.252 12.8633 115.558 12.29C115.865 11.7167 116.295 11.2733 116.848 10.96C117.402 10.64 118.045 10.48 118.778 10.48C119.398 10.48 119.948 10.5933 120.428 10.82C120.915 11.04 121.312 11.3533 121.618 11.76C121.925 12.1667 122.115 12.6467 122.188 13.2H120.478C120.372 12.8267 120.165 12.54 119.858 12.34C119.558 12.14 119.185 12.04 118.738 12.04C118.338 12.04 117.992 12.13 117.698 12.31C117.412 12.49 117.192 12.75 117.038 13.09C116.885 13.4233 116.808 13.8267 116.808 14.3C116.808 14.76 116.885 15.16 117.038 15.5C117.198 15.84 117.422 16.1033 117.708 16.29C118.002 16.47 118.345 16.56 118.738 16.56C119.192 16.56 119.575 16.4567 119.888 16.25C120.208 16.0367 120.418 15.7467 120.518 15.38H122.198C122.112 15.9267 121.908 16.4067 121.588 16.82C121.275 17.2333 120.872 17.5533 120.378 17.78C119.885 18.0067 119.328 18.12 118.708 18.12ZM125.002 10.6V18H123.382V10.6H125.002ZM127.656 18H125.966L128.606 10.6H130.186L132.816 18H131.096L130.576 16.44H128.186L127.656 18ZM129.186 13.5L128.656 15.08H130.116L129.586 13.5C129.546 13.3733 129.506 13.2433 129.466 13.11C129.426 12.9767 129.399 12.8667 129.386 12.78C129.372 12.8667 129.346 12.9767 129.306 13.11C129.272 13.2367 129.232 13.3667 129.186 13.5ZM135.397 10.6V18H133.777V10.6H135.397ZM134.067 18V16.5H138.317V18H134.067Z" fill="white"/>
<defs>
<linearGradient id="paint0_linear_36_2367" x1="11" y1="6" x2="11" y2="22" gradientUnits="userSpaceOnUse">
<stop stop-color="#29F49A"/>
<stop offset="1" stop-color="#01A0FB"/>
</linearGradient>
<linearGradient id="paint1_linear_36_2367" x1="11" y1="6" x2="11" y2="22" gradientUnits="userSpaceOnUse">
<stop stop-color="#29F49A"/>
<stop offset="1" stop-color="#01A0FB"/>
</linearGradient>
<linearGradient id="paint2_linear_36_2367" x1="11" y1="6" x2="11" y2="22" gradientUnits="userSpaceOnUse">
<stop stop-color="#29F49A"/>
<stop offset="1" stop-color="#01A0FB"/>
</linearGradient>
<linearGradient id="paint3_linear_36_2367" x1="11" y1="6" x2="11" y2="22" gradientUnits="userSpaceOnUse">
<stop stop-color="#29F49A"/>
<stop offset="1" stop-color="#01A0FB"/>
</linearGradient>
<linearGradient id="paint4_linear_36_2367" x1="11" y1="6" x2="11" y2="22" gradientUnits="userSpaceOnUse">
<stop stop-color="#29F49A"/>
<stop offset="1" stop-color="#01A0FB"/>
</linearGradient>
<linearGradient id="paint5_linear_36_2367" x1="11" y1="6" x2="11" y2="22" gradientUnits="userSpaceOnUse">
<stop stop-color="#29F49A"/>
<stop offset="1" stop-color="#01A0FB"/>
</linearGradient>
<linearGradient id="paint6_linear_36_2367" x1="110.5" y1="6" x2="110.5" y2="22" gradientUnits="userSpaceOnUse">
<stop stop-color="#29F49A"/>
<stop offset="1" stop-color="#01A0FB"/>
</linearGradient>
</defs>
</svg>
